<svg viewBox="0 0 26 21" xmlns="http://www.w3.org/2000/svg">
    <path d="M24.8612 11.3472C24.3189 8.25376 23.1703 5.31555 21.49 2.72263C21.4481 2.65174 21.3875 2.5954 21.3158 2.56056C19.7736 1.81637 18.1499 1.27897 16.4823 0.96077C16.4579 0.952779 16.4321 0.950058 16.4066 0.952769C16.3811 0.95548 16.3564 0.963567 16.3339 0.976555C16.3114 0.989543 16.2916 1.00717 16.2756 1.0284C16.2596 1.04963 16.2478 1.07404 16.2408 1.10019C16.065 1.44872 15.8925 1.8112 15.7479 2.18414C15.742 2.21163 15.7307 2.23748 15.7147 2.26002C15.6988 2.28255 15.6785 2.30126 15.6552 2.31491C15.632 2.32856 15.6062 2.33685 15.5798 2.33924C15.5533 2.34163 15.5266 2.33807 15.5015 2.32878C14.9292 2.23416 14.352 2.17597 13.7732 2.15451C12.5784 2.08699 11.3804 2.14537 10.1965 2.32878C10.1754 2.33536 10.1532 2.33737 10.1313 2.33467C10.1094 2.33198 10.0883 2.32464 10.0691 2.3131C10.0499 2.30155 10.0332 2.28604 10.0198 2.26748C10.0064 2.24891 9.99665 2.22768 9.99115 2.20505C9.82686 1.81817 9.64942 1.44698 9.46541 1.07579C9.45045 1.03166 9.42022 0.995226 9.38087 0.973868C9.34151 0.952509 9.29597 0.947827 9.25348 0.96077C7.57625 1.27692 5.94304 1.81496 4.39207 2.5623C4.31925 2.60051 4.25909 2.66128 4.21956 2.73657C4.01913 3.06768 3.81212 3.40053 3.61661 3.74907C1.60732 7.28324 0.531201 11.098 0.545988 15.2682C0.545988 15.9653 0.580489 16.6903 0.629777 17.4135C0.635054 17.4644 0.651856 17.5131 0.678748 17.5556C0.70564 17.5981 0.741824 17.633 0.784212 17.6575C2.57211 19.0393 4.55655 20.1094 6.66259 20.8274C6.69566 20.8445 6.7316 20.8545 6.76834 20.8567C6.80507 20.859 6.84185 20.8534 6.87655 20.8405C6.91125 20.8275 6.94318 20.8073 6.97047 20.7812C6.99776 20.755 7.01988 20.7233 7.03553 20.688C7.43244 20.0823 7.79507 19.452 8.1215 18.8007C8.21844 18.602 8.21351 18.5828 8.0065 18.4957C7.47675 18.2695 6.96047 18.0094 6.46051 17.7167C6.08921 17.5024 6.11878 17.5163 6.41451 17.2828C6.43496 17.2684 6.45372 17.2514 6.47037 17.2322C6.57551 17.1033 6.6823 17.119 6.82359 17.1852C8.99819 18.2324 11.381 18.7002 13.7649 18.548C15.473 18.4409 17.1488 18.0075 18.7118 17.2688C19.0026 17.1294 19.2047 17.1259 19.4248 17.3699C19.5645 17.5215 19.5809 17.5302 19.4002 17.6383C18.8497 17.9731 18.2751 18.2609 17.6817 18.4992C17.542 18.5549 17.5059 18.609 17.5831 18.7658C17.929 19.4499 18.313 20.1116 18.7331 20.7472C18.7561 20.7955 18.796 20.8323 18.8443 20.8495C18.8925 20.8668 18.9453 20.8633 18.9911 20.8396C21.1364 20.1282 23.1568 19.0473 24.9713 17.64C25.0091 17.6132 25.0405 17.5773 25.0627 17.5352C25.085 17.4931 25.0976 17.446 25.0995 17.3978C25.1208 17.0371 25.1553 16.6746 25.1701 16.3139C25.2375 14.6513 25.134 12.9859 24.8612 11.3472ZM10.254 13.8567C10.0512 14.0824 9.80467 14.259 9.53142 14.3741C9.25817 14.4893 8.96466 14.5403 8.67104 14.5238C8.37743 14.5072 8.09068 14.4235 7.83048 14.2782C7.57028 14.133 7.34281 13.9297 7.16368 13.6824C6.22228 12.4503 6.42601 10.5682 7.59741 9.67421C7.99086 9.38432 8.46476 9.24315 8.94296 9.27339C9.72499 9.31347 10.3674 9.82931 10.7502 10.7163C10.97 11.233 11.0402 11.8074 10.9519 12.3665C10.8636 12.9256 10.6207 13.4442 10.254 13.8567ZM18.3848 13.9107C18.0178 14.2938 17.5267 14.5137 17.0119 14.5257C16.4971 14.5377 15.9974 14.3408 15.6149 13.9752C15.1061 13.4757 14.7997 12.7866 14.7598 12.0525C14.72 11.3184 14.9499 10.5965 15.4013 10.0384C16.4314 8.80809 18.2107 9.11132 18.9056 10.6327C19.0876 11.0229 19.1777 11.454 19.1685 11.8892C19.177 12.2661 19.1117 12.6408 18.9768 12.9896C18.8419 13.3384 18.6404 13.6538 18.3848 13.9159V13.9107Z" />
</svg>