<svg width="26" height="26" viewBox="0 0 26 26" fill="none" xmlns="http://www.w3.org/2000/svg">
<path d="M7.42948 6.30051C5.94015 6.3776 4.51855 6.94074 3.38669 7.90198C2.25484 8.86322 1.47647 10.1684 1.17316 11.6138C1.1149 11.8989 1.13755 12.2192 1 12.49V12.6742C1.06797 12.86 1.01456 13.0362 1.03237 13.2172V13.5119C1.02194 13.8678 1.05729 14.2236 1.13755 14.5707C1.36156 15.5181 1.79052 16.4061 2.39483 17.1736C2.99914 17.941 3.76444 18.5695 4.63792 19.0158C5.37678 19.406 6.18863 19.642 7.02329 19.7094H7.3955C7.66271 19.6579 7.93743 19.6579 8.20464 19.7094H8.44415C8.45386 19.6597 8.48946 19.6517 8.53316 19.6469C10.0325 19.4904 11.4351 18.839 12.5151 17.7976C13.595 16.7563 14.2895 15.3855 14.4869 13.906C14.627 12.928 14.5462 11.9315 14.2504 10.9881C13.9545 10.0448 13.4509 9.17814 12.7759 8.45068C12.1008 7.72321 11.2712 7.15303 10.3467 6.78122C9.42215 6.40941 8.42582 6.24523 7.42948 6.30051Z" />
<path d="M20.0959 7.3481C19.2058 6.48792 18.0924 6.45268 17.157 7.25359C16.6242 7.72616 16.2155 8.31987 15.966 8.98356C14.9335 11.5785 14.9254 14.1799 15.8786 16.7909C16.1381 17.559 16.6008 18.2443 17.2185 18.7755C18.0536 19.4707 19.0504 19.4771 19.9049 18.8028C20.2719 18.5042 20.5797 18.1409 20.8128 17.7311C21.6737 16.2719 21.9375 14.67 21.9601 13.0122C21.9715 12.064 21.8551 11.1186 21.6138 10.201C21.3258 9.13894 20.9147 8.1378 20.0959 7.3481Z" />
<path d="M24.7064 9.31354C24.6125 8.71285 24.4895 8.10897 24.1497 7.58197C23.9328 7.24558 23.6642 7.24879 23.4441 7.58197C23.2539 7.8856 23.1197 8.22023 23.0476 8.57029C22.6965 10.0119 22.6058 11.4856 22.6042 13.2316C22.5956 14.2118 22.6627 15.1913 22.8049 16.1613C22.9085 16.8966 23.0282 17.6318 23.3794 18.303C23.47 18.476 23.5865 18.6586 23.8115 18.649C24.0364 18.6394 24.1238 18.4664 24.2144 18.3062C24.4345 17.8796 24.5826 17.4202 24.653 16.9462C25.097 14.4224 25.115 11.8432 24.7064 9.31354Z" />
</svg>
