<svg viewBox="0 0 23 20" xmlns="http://www.w3.org/2000/svg">
    <path d="M14.658 17.8073C13.4686 18.5579 12.1761 19.1307 10.8213 19.5076C9.00931 19.9776 7.12319 20.0899 5.2683 19.8383C4.51305 19.7419 3.77857 19.5133 3.02899 19.3697H2.86283C2.351 19.0839 1.81902 18.8357 1.27114 18.6272C1.01247 18.4893 0.770788 18.3079 0.459247 18.3061C0.44603 18.0283 0.11372 18.0907 0.0174255 17.8337C2.5173 18.0472 4.78872 17.4899 6.85055 15.8935C6.26334 15.748 5.74033 15.7045 5.2532 15.5024C4.27515 15.1037 3.5671 14.3972 2.95535 13.5697C2.95754 13.5154 2.94389 13.4616 2.91606 13.415C2.88823 13.3684 2.84742 13.3309 2.79863 13.307C2.59849 12.5853 2.59849 12.5891 3.36507 12.5816C3.64263 12.5816 3.92018 12.5646 4.19773 12.5438C4.32133 12.5229 4.44315 12.4926 4.56214 12.4531C4.18452 12.2963 3.84277 12.1792 3.52179 12.0205C2.9359 11.7428 2.41473 11.3453 1.99193 10.8536C1.56913 10.3619 1.25412 9.78689 1.06722 9.16577C1.03324 9.06186 0.980369 8.96362 0.936943 8.8616C0.950128 8.69553 0.922244 8.52878 0.855753 8.37605C0.855753 8.22869 0.855753 8.08322 0.840648 7.93774C0.825543 7.74882 0.918061 7.70347 1.08233 7.7337C1.59419 8.03719 2.17549 8.20375 2.77031 8.21735C2.57017 7.99631 2.39269 7.77904 2.18877 7.575C0.840648 6.18639 0.489457 3.84747 1.341 2.13201C1.47883 1.87696 1.55814 1.85051 1.74695 2.07911C3.39563 4.05921 5.58401 5.51705 8.04573 6.27518C8.95115 6.55594 9.88429 6.73774 10.8288 6.8174C11.1574 6.84763 11.2801 6.77584 11.2272 6.4131C11.0879 5.43555 11.254 4.43879 11.7029 3.55941C12.1518 2.68003 12.8615 1.96106 13.7347 1.501C14.5953 1.04181 15.5781 0.863943 16.5449 0.992371C17.5118 1.1208 18.4142 1.54907 19.1253 2.21703C19.2035 2.30282 19.3046 2.36443 19.4167 2.39456C19.5288 2.42469 19.6471 2.42209 19.7578 2.38706C20.6766 2.139 21.5637 1.78524 22.4012 1.33285C22.0462 2.27749 21.5874 3.00108 20.8755 3.56975C20.7962 3.63398 20.5829 3.64343 20.6527 3.81346C20.7226 3.9835 20.9058 3.86825 21.0172 3.8418C21.5043 3.73223 21.9858 3.59998 22.4672 3.46395C22.5621 3.43903 22.6611 3.43388 22.758 3.44883C22.7573 3.52219 22.7421 3.59469 22.7133 3.66214C22.6844 3.72959 22.6425 3.79065 22.59 3.8418C22.128 4.45191 21.5848 4.99602 20.9756 5.45902C20.8791 5.52239 20.8009 5.61002 20.7489 5.71314C20.6969 5.81626 20.6728 5.93124 20.6792 6.04658C20.7237 9.80153 19.2804 13.4213 16.665 16.1145C16.0496 16.7394 15.3777 17.3061 14.658 17.8073Z" />
</svg>