<?xml version="1.0" encoding="utf-8"?>
<!-- Generator: Adobe Illustrator 26.0.2, SVG Export Plug-In . SVG Version: 6.00 Build 0)  -->
<svg version="1.1" id="Layer_1" xmlns="http://www.w3.org/2000/svg"
	xmlns:xlink="http://www.w3.org/1999/xlink" x="0px" y="0px"
	viewBox="0 0 2048 708.55" style="enable-background:new 0 0 2048 708.55;" xml:space="preserve">
	<style type="text/css">
		.st0{fill:url(#SVGID_1_);}
		.st1{fill:url(#SVGID_00000036929767636149963150000001367816174132017286_);}
		.st2{fill:url(#SVGID_00000147184051544560918000000003687629352395519418_);}
		.st3{fill:url(#SVGID_00000104698223005285523990000008682935982230491540_);}
		.st4{fill:url(#SVGID_00000020384840006746967330000018125295852335963833_);}
		.st5{fill:url(#SVGID_00000084516797188915194150000010172415189951165106_);}
		.st6{fill:url(#SVGID_00000078751809160641228740000012542588573505958317_);}
		.st7{fill:url(#SVGID_00000150066851443829263100000003667444484088816558_);}
		.st8{fill:url(#SVGID_00000081630894220213317340000006614918114404892836_);}
		.st9{fill:url(#SVGID_00000160192690190775188080000001537891180139198134_);}
		.st10{fill:url(#SVGID_00000080187323315429789950000014689107083398466207_);}
		.st11{fill:url(#SVGID_00000115502353555235812330000017348959822975288716_);}
		.st12{fill:url(#SVGID_00000016068518869268748010000007339295467199686067_);}
		.st13{fill:url(#SVGID_00000088092259987629415150000012208778426026954888_);}
		.st14{fill:url(#SVGID_00000082345735094120177350000016646138828150940315_);}
		.st15{fill:url(#SVGID_00000081631216799206730920000017357503297135360921_);}
		.st16{fill:url(#SVGID_00000146481024712244337770000013262341857733268627_);}
		.st17{fill:url(#SVGID_00000049943827793030564760000002266636796567170487_);}
		.st18{fill:url(#SVGID_00000000217906806961287990000014759417184818784177_);}
		.st19{fill:url(#SVGID_00000132796923178600344650000002372437476560935578_);}
		.st20{fill:url(#SVGID_00000021835701676397680490000009751751621359713966_);}
		.st21{fill:url(#SVGID_00000076568912384334917700000010386676334981616288_);}
		.st22{fill:url(#SVGID_00000164479465473076138950000013718491424738005680_);}
		.st23{fill:none;stroke:#FFFFFF;stroke-miterlimit:10;}
		.st24{fill:#FFFFFF;}
		.st25{fill:#010101;}
	</style>
<g>	
	<linearGradient id="SVGID_1_" gradientUnits="userSpaceOnUse" x1="404.5916" y1="941.8392" x2="2062.051" y2="941.8392" gradientTransform="matrix(1 0 0 1 0 -606.0942)">
		<stop  offset="0" style="stop-color:#52B2E4"/>
		<stop  offset="0.2324" style="stop-color:#74C488"/>
		<stop  offset="0.4865" style="stop-color:#F8EC26"/>
		<stop  offset="0.7081" style="stop-color:#F89522"/>
		<stop  offset="1" style="stop-color:#EC2363"/>
	</linearGradient>
	<path class="st0" d="M1338.41,276.85L1338.41,276.85c-5.85,0-10.53,4.68-10.53,10.53v96.73c0,5.85,4.68,10.53,10.53,10.53l0,0
		c5.85,0,10.53-4.68,10.53-10.53v-96.73C1348.94,281.53,1344.26,276.85,1338.41,276.85z"/>
	
		<linearGradient id="SVGID_00000055684157318837590110000006218446516061265820_" gradientUnits="userSpaceOnUse" x1="404.5916" y1="784.2692" x2="2062.051" y2="784.2692" gradientTransform="matrix(1 0 0 1 0 -606.0942)">
		<stop  offset="0" style="stop-color:#52B2E4"/>
		<stop  offset="0.2324" style="stop-color:#74C488"/>
		<stop  offset="0.4865" style="stop-color:#F8EC26"/>
		<stop  offset="0.7081" style="stop-color:#F89522"/>
		<stop  offset="1" style="stop-color:#EC2363"/>
	</linearGradient>
	<path style="fill:url(#SVGID_00000055684157318837590110000006218446516061265820_);" d="M1241.29,120.45
		c-5.85,0-10.53,4.68-10.53,10.53v95.56c0,5.07,4.29,9.36,9.36,9.36h2.73c5.07,0,9.36-4.29,9.36-9.36v-95.56
		C1251.82,125.13,1247.14,120.45,1241.29,120.45z"/>
	
		<linearGradient id="SVGID_00000173144933148686425680000018104426695099932594_" gradientUnits="userSpaceOnUse" x1="404.5916" y1="849.0142" x2="2062.051" y2="849.0142" gradientTransform="matrix(1 0 0 1 0 -606.0942)">
		<stop  offset="0" style="stop-color:#52B2E4"/>
		<stop  offset="0.2324" style="stop-color:#74C488"/>
		<stop  offset="0.4865" style="stop-color:#F8EC26"/>
		<stop  offset="0.7081" style="stop-color:#F89522"/>
		<stop  offset="1" style="stop-color:#EC2363"/>
	</linearGradient>
	<path style="fill:url(#SVGID_00000173144933148686425680000018104426695099932594_);" d="M1539.66,219.91L1539.66,219.91
		c-5.85,0-10.53,4.68-10.53,10.53v24.96c0,5.85,4.68,10.53,10.53,10.53l0,0c5.85,0,10.53-4.68,10.53-10.53v-24.96
		C1550.19,224.59,1545.51,219.91,1539.66,219.91z"/>
	
		<linearGradient id="SVGID_00000025444323100519860310000013921630391281345967_" gradientUnits="userSpaceOnUse" x1="404.5916" y1="900.2992" x2="2062.051" y2="900.2992" gradientTransform="matrix(1 0 0 1 0 -606.0942)">
		<stop  offset="0" style="stop-color:#52B2E4"/>
		<stop  offset="0.2324" style="stop-color:#74C488"/>
		<stop  offset="0.4865" style="stop-color:#F8EC26"/>
		<stop  offset="0.7081" style="stop-color:#F89522"/>
		<stop  offset="1" style="stop-color:#EC2363"/>
	</linearGradient>
	<path style="fill:url(#SVGID_00000025444323100519860310000013921630391281345967_);" d="M1437.47,158.28
		c-5.85,0-10.53,4.68-10.53,10.53V419.6c0,5.85,4.68,10.53,10.53,10.53s10.53-4.68,10.53-10.53V168.81
		C1448,162.96,1443.32,158.28,1437.47,158.28z"/>
	
		<linearGradient id="SVGID_00000035522736829635714750000017834374637717278087_" gradientUnits="userSpaceOnUse" x1="404.5916" y1="941.8392" x2="2062.051" y2="941.8392" gradientTransform="matrix(1 0 0 1 0 -606.0942)">
		<stop  offset="0" style="stop-color:#52B2E4"/>
		<stop  offset="0.2324" style="stop-color:#74C488"/>
		<stop  offset="0.4865" style="stop-color:#F8EC26"/>
		<stop  offset="0.7081" style="stop-color:#F89522"/>
		<stop  offset="1" style="stop-color:#EC2363"/>
	</linearGradient>
	<path style="fill:url(#SVGID_00000035522736829635714750000017834374637717278087_);" d="M1273.66,255.4
		c-5.85,0-10.53,4.68-10.53,10.53v140.8c0,5.07,4.29,9.36,9.36,9.36h2.73c5.07,0,9.36-4.29,9.36-9.36v-140.8
		C1284.58,260.08,1279.9,255.4,1273.66,255.4z"/>
	
		<linearGradient id="SVGID_00000179616646096425070980000010117129952455556284_" gradientUnits="userSpaceOnUse" x1="404.5916" y1="926.2343" x2="2062.051" y2="926.2343" gradientTransform="matrix(1 0 0 1 0 -606.0942)">
		<stop  offset="0" style="stop-color:#52B2E4"/>
		<stop  offset="0.2324" style="stop-color:#74C488"/>
		<stop  offset="0.4865" style="stop-color:#F8EC26"/>
		<stop  offset="0.7081" style="stop-color:#F89522"/>
		<stop  offset="1" style="stop-color:#EC2363"/>
	</linearGradient>
	<path style="fill:url(#SVGID_00000179616646096425070980000010117129952455556284_);" d="M1539.66,281.14
		c-5.85,0-10.53,4.68-10.53,10.53v56.94c0,5.85,4.68,10.53,10.53,10.53s10.53-4.68,10.53-10.53v-56.94
		C1550.19,285.82,1545.51,281.14,1539.66,281.14z"/>
	
		<linearGradient id="SVGID_00000086689447728503864870000005094850599767076788_" gradientUnits="userSpaceOnUse" x1="404.5916" y1="1019.2542" x2="2062.051" y2="1019.2542" gradientTransform="matrix(1 0 0 1 0 -606.0942)">
		<stop  offset="0" style="stop-color:#52B2E4"/>
		<stop  offset="0.2324" style="stop-color:#74C488"/>
		<stop  offset="0.4865" style="stop-color:#F8EC26"/>
		<stop  offset="0.7081" style="stop-color:#F89522"/>
		<stop  offset="1" style="stop-color:#EC2363"/>
	</linearGradient>
	<path style="fill:url(#SVGID_00000086689447728503864870000005094850599767076788_);" d="M1405.88,138.39
		c-5.85,0-10.53,4.68-10.53,10.53V677.4c0,5.85,4.68,10.53,10.53,10.53s10.53-4.68,10.53-10.53V148.92
		C1416.41,143.07,1411.73,138.39,1405.88,138.39z"/>
	
		<linearGradient id="SVGID_00000035512228374328634990000007680444770575728290_" gradientUnits="userSpaceOnUse" x1="404.5916" y1="1030.5692" x2="2062.051" y2="1030.5692" gradientTransform="matrix(1 0 0 1 0 -606.0942)">
		<stop  offset="0" style="stop-color:#52B2E4"/>
		<stop  offset="0.2324" style="stop-color:#74C488"/>
		<stop  offset="0.4865" style="stop-color:#F8EC26"/>
		<stop  offset="0.7081" style="stop-color:#F89522"/>
		<stop  offset="1" style="stop-color:#EC2363"/>
	</linearGradient>
	<path style="fill:url(#SVGID_00000035512228374328634990000007680444770575728290_);" d="M1339.58,446.51
		c5.85,0,10.53-4.68,10.53-10.53v-23.01c0-5.85-4.68-10.53-10.53-10.53s-10.53,4.68-10.53,10.53v23.01
		C1329.05,441.83,1333.73,446.51,1339.58,446.51z"/>
	
		<linearGradient id="SVGID_00000011734138764552828590000011156000102168147354_" gradientUnits="userSpaceOnUse" x1="404.5916" y1="849.3992" x2="2062.051" y2="849.3992" gradientTransform="matrix(1 0 0 1 0 -606.0942)">
		<stop  offset="0" style="stop-color:#52B2E4"/>
		<stop  offset="0.2324" style="stop-color:#74C488"/>
		<stop  offset="0.4865" style="stop-color:#F8EC26"/>
		<stop  offset="0.7081" style="stop-color:#F89522"/>
		<stop  offset="1" style="stop-color:#EC2363"/>
	</linearGradient>
	<path style="fill:url(#SVGID_00000011734138764552828590000011156000102168147354_);" d="M1371.95,121.23
		c-5.85,0-10.53,5.85-10.53,13.65v216.85c0,7.41,4.68,13.65,10.53,13.65s10.53-5.85,10.53-13.65V134.88
		C1382.48,127.08,1377.8,121.23,1371.95,121.23z"/>
	
		<linearGradient id="SVGID_00000112606934723409292340000004916404974715589777_" gradientUnits="userSpaceOnUse" x1="404.5916" y1="999.3692" x2="2062.051" y2="999.3692" gradientTransform="matrix(1 0 0 1 0 -606.0942)">
		<stop  offset="0" style="stop-color:#52B2E4"/>
		<stop  offset="0.2324" style="stop-color:#74C488"/>
		<stop  offset="0.4865" style="stop-color:#F8EC26"/>
		<stop  offset="0.7081" style="stop-color:#F89522"/>
		<stop  offset="1" style="stop-color:#EC2363"/>
	</linearGradient>
	<path style="fill:url(#SVGID_00000112606934723409292340000004916404974715589777_);" d="M1206.58,366.56L1206.58,366.56
		c-5.85,0-10.53,4.68-10.53,10.53v7.02H770.14c-3.12,0-5.46,2.34-5.46,5.46s2.34,5.46,5.46,5.46h425.91v14.43
		c0,5.85,4.68,10.53,10.53,10.53l0,0c5.85,0,10.53-4.68,10.53-10.53v-31.98C1217.11,371.24,1212.43,366.56,1206.58,366.56z"/>
	
		<linearGradient id="SVGID_00000091711448914697418130000016414168111796616625_" gradientUnits="userSpaceOnUse" x1="404.5916" y1="999.3642" x2="2062.051" y2="999.3642" gradientTransform="matrix(1 0 0 1 0 -606.0942)">
		<stop  offset="0" style="stop-color:#52B2E4"/>
		<stop  offset="0.2324" style="stop-color:#74C488"/>
		<stop  offset="0.4865" style="stop-color:#F8EC26"/>
		<stop  offset="0.7081" style="stop-color:#F89522"/>
		<stop  offset="1" style="stop-color:#EC2363"/>
	</linearGradient>
	<path style="fill:url(#SVGID_00000091711448914697418130000016414168111796616625_);" d="M1306.42,335.74
		c-5.85,0-10.53,4.68-10.53,10.53v95.17c0,5.07,4.29,9.36,9.36,9.36h2.73c5.07,0,9.36-4.29,9.36-9.36v-95.17
		C1317.34,340.42,1312.27,335.74,1306.42,335.74z"/>
	
		<linearGradient id="SVGID_00000093164931925071519860000014501494151613943220_" gradientUnits="userSpaceOnUse" x1="404.5916" y1="900.1092" x2="2062.051" y2="900.1092" gradientTransform="matrix(1 0 0 1 0 -606.0942)">
		<stop  offset="0" style="stop-color:#52B2E4"/>
		<stop  offset="0.2324" style="stop-color:#74C488"/>
		<stop  offset="0.4865" style="stop-color:#F8EC26"/>
		<stop  offset="0.7081" style="stop-color:#F89522"/>
		<stop  offset="1" style="stop-color:#EC2363"/>
	</linearGradient>
	<path style="fill:url(#SVGID_00000093164931925071519860000014501494151613943220_);" d="M1506.12,212.89
		c-5.85,0-10.53,4.68-10.53,10.53v141.19c0,5.85,4.68,10.53,10.53,10.53s10.53-4.68,10.53-10.53V223.42
		C1517.04,217.57,1511.97,212.89,1506.12,212.89z"/>
	
		<linearGradient id="SVGID_00000111880456279675104870000014319008705665237162_" gradientUnits="userSpaceOnUse" x1="404.5916" y1="900.1042" x2="2062.051" y2="900.1042" gradientTransform="matrix(1 0 0 1 0 -606.0942)">
		<stop  offset="0" style="stop-color:#52B2E4"/>
		<stop  offset="0.2324" style="stop-color:#74C488"/>
		<stop  offset="0.4865" style="stop-color:#F8EC26"/>
		<stop  offset="0.7081" style="stop-color:#F89522"/>
		<stop  offset="1" style="stop-color:#EC2363"/>
	</linearGradient>
	<path style="fill:url(#SVGID_00000111880456279675104870000014319008705665237162_);" d="M2009.64,288.55h-425.91v-10.53
		c0-5.85-4.68-10.53-10.53-10.53s-10.53,4.68-10.53,10.53V310c0,5.85,4.68,10.53,10.53,10.53s10.53-4.68,10.53-10.53v-10.53h425.91
		c3.12,0,5.46-2.34,5.46-5.46C2015.1,291.28,2012.76,288.55,2009.64,288.55z"/>
	
		<linearGradient id="SVGID_00000119807232543678737180000005158926881646913684_" gradientUnits="userSpaceOnUse" x1="404.5916" y1="981.2242" x2="2062.051" y2="981.2242" gradientTransform="matrix(1 0 0 1 0 -606.0942)">
		<stop  offset="0" style="stop-color:#52B2E4"/>
		<stop  offset="0.2324" style="stop-color:#74C488"/>
		<stop  offset="0.4865" style="stop-color:#F8EC26"/>
		<stop  offset="0.7081" style="stop-color:#F89522"/>
		<stop  offset="1" style="stop-color:#EC2363"/>
	</linearGradient>
	<path style="fill:url(#SVGID_00000119807232543678737180000005158926881646913684_);" d="M1471.79,336.13
		c-5.85,0-10.53,4.68-10.53,10.53v56.94c0,5.85,4.68,10.53,10.53,10.53s10.53-4.68,10.53-10.53v-56.94
		C1482.71,341.2,1477.64,336.13,1471.79,336.13z"/>
	
		<linearGradient id="SVGID_00000116927671022573425150000010439700190635550082_" gradientUnits="userSpaceOnUse" x1="404.5916" y1="813.5142" x2="2062.051" y2="813.5142" gradientTransform="matrix(1 0 0 1 0 -606.0942)">
		<stop  offset="0" style="stop-color:#52B2E4"/>
		<stop  offset="0.2324" style="stop-color:#74C488"/>
		<stop  offset="0.4865" style="stop-color:#F8EC26"/>
		<stop  offset="0.7081" style="stop-color:#F89522"/>
		<stop  offset="1" style="stop-color:#EC2363"/>
	</linearGradient>
	<path style="fill:url(#SVGID_00000116927671022573425150000010439700190635550082_);" d="M1471.79,184.41L1471.79,184.41
		c-5.85,0-10.53,4.68-10.53,10.53v24.96c0,5.85,4.68,10.53,10.53,10.53l0,0c5.85,0,10.53-4.68,10.53-10.53v-24.96
		C1482.71,189.09,1477.64,184.41,1471.79,184.41z"/>
	
		<linearGradient id="SVGID_00000041255432879029244980000004155318710307236535_" gradientUnits="userSpaceOnUse" x1="404.5916" y1="907.9092" x2="2062.051" y2="907.9092" gradientTransform="matrix(1 0 0 1 0 -606.0942)">
		<stop  offset="0" style="stop-color:#52B2E4"/>
		<stop  offset="0.2324" style="stop-color:#74C488"/>
		<stop  offset="0.4865" style="stop-color:#F8EC26"/>
		<stop  offset="0.7081" style="stop-color:#F89522"/>
		<stop  offset="1" style="stop-color:#EC2363"/>
	</linearGradient>
	<path style="fill:url(#SVGID_00000041255432879029244980000004155318710307236535_);" d="M1241.29,244.09
		c-5.85,0-10.53,4.68-10.53,10.53v95.56c0,5.07,4.29,9.36,9.36,9.36h2.73c5.07,0,9.36-4.29,9.36-9.36v-95.56
		C1251.82,248.77,1247.14,244.09,1241.29,244.09z"/>
	
		<linearGradient id="SVGID_00000062895609388073005010000015893219512054198448_" gradientUnits="userSpaceOnUse" x1="404.5916" y1="868.3192" x2="2062.051" y2="868.3192" gradientTransform="matrix(1 0 0 1 0 -606.0942)">
		<stop  offset="0" style="stop-color:#52B2E4"/>
		<stop  offset="0.2324" style="stop-color:#74C488"/>
		<stop  offset="0.4865" style="stop-color:#F8EC26"/>
		<stop  offset="0.7081" style="stop-color:#F89522"/>
		<stop  offset="1" style="stop-color:#EC2363"/>
	</linearGradient>
	<path style="fill:url(#SVGID_00000062895609388073005010000015893219512054198448_);" d="M389.86,261.64
		c0-11.7,2.34-22.62,6.63-32.76s10.53-19.5,17.94-27.3s16.77-14.04,26.91-18.33c10.14-4.29,21.06-7.02,32.76-7.02
		c3.9,0,6.63,1.17,8.97,3.12s3.51,4.68,3.51,7.8c0,3.12-1.17,5.85-3.51,7.8s-5.07,3.12-8.97,3.12c-8.58,0.39-16.38,1.95-24.18,5.46
		c-7.8,3.51-14.04,7.8-19.89,13.65c-5.85,5.85-10.14,12.48-13.26,19.89s-4.68,15.6-4.68,24.18v76.05c0,3.12-1.17,5.85-3.12,7.8
		c-1.95,1.95-4.68,3.12-7.8,3.12s-5.85-1.17-7.8-3.12c-2.34-1.95-3.12-4.68-3.12-7.8L389.86,261.64L389.86,261.64L389.86,261.64z"/>
	
		<linearGradient id="SVGID_00000069369388215015933010000001266738701381840003_" gradientUnits="userSpaceOnUse" x1="404.5916" y1="868.6992" x2="2062.051" y2="868.6992" gradientTransform="matrix(1 0 0 1 0 -606.0942)">
		<stop  offset="0" style="stop-color:#52B2E4"/>
		<stop  offset="0.2324" style="stop-color:#74C488"/>
		<stop  offset="0.4865" style="stop-color:#F8EC26"/>
		<stop  offset="0.7081" style="stop-color:#F89522"/>
		<stop  offset="1" style="stop-color:#EC2363"/>
	</linearGradient>
	<path style="fill:url(#SVGID_00000069369388215015933010000001266738701381840003_);" d="M561.48,177
		c11.31,0,22.23,2.34,32.37,7.02c10.14,4.68,19.5,10.92,27.3,18.72s14.04,16.77,18.72,27.3s7.02,21.45,7.02,33.15
		c0,11.7-2.34,22.62-6.63,32.76s-10.53,19.5-18.33,27.3s-16.77,14.04-27.3,18.33c-10.53,4.29-21.84,6.63-33.54,6.63
		c-11.7,0-23.01-1.95-33.15-6.24c-10.14-4.29-19.5-10.14-27.3-17.55c-7.8-7.41-14.04-16.38-18.33-26.91s-6.63-21.84-6.63-33.93
		c0-11.7,2.34-23.01,6.63-33.15s10.53-19.11,17.94-26.91s16.77-13.65,27.3-18.33C537.68,179.73,549,177.39,561.48,177z
		 M497.12,263.2c0,8.58,1.56,17.16,5.07,24.57c3.51,7.8,7.8,14.43,13.65,20.28c5.85,5.85,12.48,10.14,20.28,13.65
		c7.8,3.51,15.99,5.07,24.57,5.07s17.16-1.56,24.96-5.07c7.8-3.51,14.43-7.8,20.28-13.65c5.85-5.85,10.14-12.48,13.65-20.28
		s5.07-15.99,5.07-24.57c0-8.58-1.56-17.16-5.07-24.96c-3.51-7.8-7.8-14.43-13.65-20.28c-5.85-5.85-12.48-10.14-20.28-13.65
		c-7.8-3.51-15.99-5.07-24.96-5.07s-17.16,1.56-24.57,5.07c-7.8,3.51-14.43,7.8-20.28,13.65c-5.85,5.85-10.14,12.48-13.65,20.28
		C498.68,246.04,497.12,254.23,497.12,263.2z"/>
	
		<linearGradient id="SVGID_00000156549700629464148820000004503222056916643728_" gradientUnits="userSpaceOnUse" x1="404.5916" y1="868.5042" x2="2062.051" y2="868.5042" gradientTransform="matrix(1 0 0 1 0 -606.0942)">
		<stop  offset="0" style="stop-color:#52B2E4"/>
		<stop  offset="0.2324" style="stop-color:#74C488"/>
		<stop  offset="0.4865" style="stop-color:#F8EC26"/>
		<stop  offset="0.7081" style="stop-color:#F89522"/>
		<stop  offset="1" style="stop-color:#EC2363"/>
	</linearGradient>
	<path style="fill:url(#SVGID_00000156549700629464148820000004503222056916643728_);" d="M664.05,187.14c0-3.12,1.17-5.85,3.12-7.8
		s4.68-3.12,7.8-3.12s5.85,1.17,7.8,3.12c2.34,1.95,3.12,4.68,3.12,7.8v76.05c0,8.58,1.56,17.16,5.07,24.57s7.8,14.43,13.65,20.28
		c5.85,5.85,12.48,10.14,20.28,13.65c7.8,3.51,15.99,5.07,24.57,5.07s17.16-1.56,24.57-5.07c7.8-3.51,14.43-7.8,20.28-13.65
		c5.85-5.85,10.14-12.48,13.65-20.28s5.07-15.99,5.07-24.57v-76.05c0-3.12,1.17-5.85,3.12-7.8s4.68-3.12,7.8-3.12
		s5.85,1.17,7.8,3.12c2.34,1.95,3.12,4.68,3.12,7.8v76.05c0,11.7-2.34,23.01-6.63,33.15c-4.29,10.53-10.53,19.5-18.33,27.3
		s-16.77,13.65-27.3,18.33c-10.53,4.29-21.45,6.63-33.54,6.63c-12.09,0-23.01-2.34-33.54-6.63c-10.53-4.29-19.5-10.53-27.3-18.33
		s-13.65-16.77-18.33-27.3c-4.29-10.53-6.63-21.45-6.63-33.15L664.05,187.14L664.05,187.14z"/>
	
		<linearGradient id="SVGID_00000147909082655648030350000015920023827524786827_" gradientUnits="userSpaceOnUse" x1="404.5916" y1="868.5142" x2="2062.051" y2="868.5142" gradientTransform="matrix(1 0 0 1 0 -606.0942)">
		<stop  offset="0" style="stop-color:#52B2E4"/>
		<stop  offset="0.2324" style="stop-color:#74C488"/>
		<stop  offset="0.4865" style="stop-color:#F8EC26"/>
		<stop  offset="0.7081" style="stop-color:#F89522"/>
		<stop  offset="1" style="stop-color:#EC2363"/>
	</linearGradient>
	<path style="fill:url(#SVGID_00000147909082655648030350000015920023827524786827_);" d="M853.99,261.64
		c0-11.7,2.34-23.01,6.63-33.15c4.29-10.53,10.53-19.5,18.33-27.3s16.77-13.65,27.3-18.33c10.53-4.29,21.45-6.63,33.54-6.63
		c12.09,0,23.01,2.34,33.54,6.63c10.53,4.29,19.5,10.53,27.3,18.33s13.65,16.77,18.33,27.3c4.29,10.53,6.63,21.45,6.63,33.15v76.05
		c0,3.12-1.17,5.85-3.12,7.8c-1.95,1.95-4.68,3.12-7.8,3.12s-5.85-1.17-7.8-3.12s-3.12-4.68-3.12-7.8v-76.05
		c0-8.58-1.56-17.16-5.07-24.57s-7.8-14.43-13.65-20.28c-5.85-5.85-12.48-10.14-20.28-13.65c-7.8-3.51-15.99-5.07-24.57-5.07
		s-17.16,1.56-24.57,5.07c-7.41,3.51-14.43,7.8-20.28,13.65c-5.85,5.85-10.14,12.48-13.65,20.28s-5.07,15.99-5.07,24.57v76.05
		c0,3.12-1.17,5.85-3.12,7.8c-2.34,1.95-4.68,3.12-7.8,3.12s-5.85-1.17-7.8-3.12c-2.34-1.95-3.12-4.68-3.12-7.8L853.99,261.64
		L853.99,261.64z"/>
	
		<linearGradient id="SVGID_00000000944793714383298340000017350730546316131730_" gradientUnits="userSpaceOnUse" x1="404.5916" y1="840.0342" x2="2062.051" y2="840.0342" gradientTransform="matrix(1 0 0 1 0 -606.0942)">
		<stop  offset="0" style="stop-color:#52B2E4"/>
		<stop  offset="0.2324" style="stop-color:#74C488"/>
		<stop  offset="0.4865" style="stop-color:#F8EC26"/>
		<stop  offset="0.7081" style="stop-color:#F89522"/>
		<stop  offset="1" style="stop-color:#EC2363"/>
	</linearGradient>
	<path style="fill:url(#SVGID_00000000944793714383298340000017350730546316131730_);" d="M1122.72,177
		c13.26,0.39,25.35,3.9,36.27,10.14s20.28,13.65,28.08,22.23v-78.4c0-3.12,1.17-5.85,3.12-7.8c1.95-1.95,4.68-3.12,7.8-3.12
		s5.85,1.17,7.8,3.12c1.95,1.95,3.12,4.68,3.12,7.8V263.2c0,12.09-2.34,23.79-6.63,33.93c-4.29,10.53-10.53,19.5-18.33,26.91
		c-7.8,7.41-16.77,13.65-27.3,17.55c-10.53,4.29-21.45,6.24-33.15,6.24c-12.09,0-23.4-2.34-33.54-6.63
		c-10.53-4.29-19.5-10.53-27.3-18.33s-13.65-16.77-18.33-27.3c-4.29-10.14-6.63-21.06-6.63-32.76c0-11.7,2.34-23.01,7.02-33.15
		c4.68-10.53,10.92-19.5,18.72-27.3c7.8-7.8,16.77-14.04,27.3-18.72C1100.49,179.34,1111.02,177,1122.72,177z M1186.69,263.2
		c-0.39-9.36-2.34-17.55-5.85-25.35s-7.8-14.43-13.65-20.28s-12.09-10.14-19.89-13.26s-15.6-4.68-24.18-4.68
		c-8.58,0-17.16,1.56-24.96,5.07c-7.8,3.51-14.43,7.8-20.28,13.65c-5.85,5.85-10.14,12.48-13.65,20.28s-5.07,15.99-5.07,24.96
		c0,8.58,1.56,17.16,5.07,24.57c3.51,7.8,7.8,14.43,13.65,20.28s12.48,10.14,20.28,13.65c7.8,3.51,15.99,5.07,24.96,5.07
		c8.58,0,17.16-1.56,24.57-5.07c7.41-3.51,14.43-7.8,20.28-13.65s10.14-12.48,13.65-20.28
		C1185.13,279.97,1186.69,271.78,1186.69,263.2z"/>
	
		<linearGradient id="SVGID_00000137829825549002939000000011503815747087698836_" gradientUnits="userSpaceOnUse" x1="404.5916" y1="889.5742" x2="2062.051" y2="889.5742" gradientTransform="matrix(1 0 0 1 0 -606.0942)">
		<stop  offset="0" style="stop-color:#52B2E4"/>
		<stop  offset="0.2324" style="stop-color:#74C488"/>
		<stop  offset="0.4865" style="stop-color:#F8EC26"/>
		<stop  offset="0.7081" style="stop-color:#F89522"/>
		<stop  offset="1" style="stop-color:#EC2363"/>
	</linearGradient>
	<path style="fill:url(#SVGID_00000137829825549002939000000011503815747087698836_);" d="M1471.79,244.48
		c-5.85,0-10.53,4.68-10.53,10.53v56.94c0,5.85,4.68,10.53,10.53,10.53s10.53-4.68,10.53-10.53v-56.94
		C1482.71,249.16,1477.64,244.48,1471.79,244.48z"/>
	<g>
		
			<linearGradient id="SVGID_00000149342369775001969870000016071971072362482842_" gradientUnits="userSpaceOnUse" x1="22.46" y1="832.7111" x2="390.6435" y2="832.7111" gradientTransform="matrix(1 0 0 1 0 -606.0942)">
			<stop  offset="0" style="stop-color:#52B2E4"/>
			<stop  offset="0.2324" style="stop-color:#74C488"/>
			<stop  offset="0.4865" style="stop-color:#F8EC26"/>
			<stop  offset="0.7081" style="stop-color:#F89522"/>
			<stop  offset="1" style="stop-color:#EC2363"/>
		</linearGradient>
		<path style="fill:url(#SVGID_00000149342369775001969870000016071971072362482842_);" d="M360.61,313.51
			c5.46-7.02,9.75-14.82,12.48-23.4c1.17-3.51,2.34-7.41,2.73-10.92c9.36-21.84,14.43-46.02,14.43-71.37
			c0-101.8-82.3-184.09-184.09-184.09s-183.7,82.3-183.7,183.7s82.3,184.09,184.09,184.09c53.82,0,102.58-23.4,136.12-60.06
			c1.17-0.78,2.34-1.56,3.12-2.34c3.12,3.51,5.85,7.02,7.41,11.7c1.95,4.29,2.73,8.97,2.73,13.65c0,5.07-0.78,9.75-2.73,14.04
			s-4.68,8.19-7.8,11.7s-7.02,5.85-11.7,7.8c-4.68,1.95-9.36,2.73-14.04,2.73h-46.8c-8.19,0-15.6,2.34-22.23,6.63
			c-6.63,4.29-11.7,10.14-14.82,16.77c-1.17,2.73-1.17,5.46-0.39,8.19s2.73,5.07,5.07,6.24c2.73,1.17,5.85,1.17,8.58,0.39
			s5.07-2.73,6.24-5.46c1.95-3.12,4.68-5.85,8.19-7.8c3.51-1.95,6.63-3.51,9.75-3.51h46.8c8.19,0,15.6-1.56,22.62-4.68
			s13.26-7.41,18.33-12.48c5.07-5.46,9.36-11.31,12.48-18.33c3.12-7.02,4.68-14.43,4.68-22.62s-1.56-15.6-4.68-22.62
			C369.97,324.82,366.07,318.58,360.61,313.51z"/>
		<circle class="st23" cx="206.55" cy="207.43" r="163.81"/>
		<circle class="st23" cx="206.55" cy="207.43" r="99.07"/>
		<circle class="st24" cx="206.55" cy="207.43" r="65.13"/>
	</g>
	<circle class="st25" cx="202.26" cy="207.43" r="28.08"/>
	<circle class="st24" cx="202.26" cy="207.43" r="5.85"/>
</g>
</svg>